<?xml version="1.0" encoding="UTF-8"?>
<svg xmlns="http://www.w3.org/2000/svg" xmlns:xlink="http://www.w3.org/1999/xlink" width="83pt" height="75pt" viewBox="0 0 83 75" version="1.1">
<g id="surface3">
<path style=" stroke:none;fill-rule:nonzero;fill:rgb(100%,100%,100%);fill-opacity:1;" d="M 24.890625 66.945312 C 21.722656 64.417969 18.34375 62.003906 16.039062 58.597656 C 11.179688 52.589844 7.4375 45.636719 4.882812 38.324219 C 3.335938 33.570312 2.804688 28.472656 0.8125 23.902344 C -1.269531 20.585938 1.171875 16.953125 4.761719 15.902344 C 6.359375 15.589844 9.167969 14.058594 5.777344 15.15625 C 2.738281 17.414062 2.441406 13.101562 5.558594 12.828125 C 7.691406 12.539062 8.46875 10.773438 7.742188 9.191406 C 5.457031 7.679688 13.28125 6.023438 9.34375 3.769531 C 5.242188 -0.703125 15.078125 -1.566406 12.652344 3.523438 C 12.078125 7.433594 19.527344 2.800781 17.796875 7.324219 C 19.554688 9.492188 24.378906 7.816406 24.257812 10.863281 C 26.820312 11.042969 27.699219 13.222656 30.105469 13.390625 C 32.597656 14.527344 37.109375 15.425781 37.957031 18.269531 C 35.488281 20.253906 29.765625 14.179688 29.488281 19.664062 C 30.238281 27.769531 30.042969 36.121094 32.96875 43.839844 C 34.355469 48.511719 37.710938 52.1875 40.738281 55.828125 C 43.640625 59.390625 47.570312 61.902344 51.570312 64.015625 C 55.082031 65.691406 58.871094 66.804688 62.699219 67.503906 C 64.25 66.300781 66.992188 61.828125 69.410156 63.714844 C 69.527344 65.835938 64.605469 68.144531 69.179688 67.910156 C 71.867188 67.089844 73.730469 70.015625 75.941406 67.375 C 77.980469 69.820312 84.410156 65.8125 82.964844 70.8125 C 81 72.09375 78.140625 71.320312 76.175781 73.082031 C 72.9375 71.441406 70.359375 74.546875 66.773438 74.15625 C 62.789062 74.878906 58.738281 75.167969 54.703125 75.175781 C 48.078125 74.648438 41.3125 74.421875 35.015625 72.085938 C 31.460938 71.039062 28 68.992188 24.882812 66.941406 Z M 30.484375 69.402344 C 33.953125 70.917969 37.34375 72.515625 41.136719 73 C 47.164062 73.847656 53.386719 75.160156 59.433594 73.964844 C 56.695312 72.710938 53.867188 74.453125 51.140625 73.070312 C 47.867188 73.78125 44.386719 72.886719 41.007812 72.445312 C 37.226562 70.742188 33.144531 69.566406 29.609375 67.351562 C 25.183594 65.714844 31.894531 69.449219 33.089844 69.753906 C 35.851562 71.34375 30.050781 68.964844 29.226562 68.28125 C 26.910156 66.964844 26.617188 67.238281 29 68.574219 L 30.453125 69.402344 Z M 23.886719 64.679688 C 27.246094 65.941406 23.871094 62.285156 22.335938 62.496094 C 21.65625 61.296875 19.730469 60.539062 21.089844 59.898438 C 18.648438 60.753906 18.53125 56.632812 17.386719 57.222656 C 14.804688 56.398438 16.382812 53.472656 13.308594 51.671875 C 13.027344 49.777344 10.253906 48.136719 9.371094 45.28125 C 8.980469 43.816406 6.234375 39.621094 7.917969 43.527344 C 9.355469 47.292969 11.878906 50.511719 13.984375 53.726562 C 15.613281 56.789062 17.542969 59.988281 20.515625 61.902344 C 21.515625 62.875 22.484375 64.367188 23.898438 64.675781 Z M 14.210938 53.914062 C 14.328125 53.402344 14.824219 55.027344 14.210938 53.914062 Z M 27.910156 66.1875 C 28.652344 65.851562 26.839844 65.761719 27.910156 66.1875 Z M 29.730469 66.859375 C 29.539062 65.933594 28.898438 67.382812 29.730469 66.859375 Z M 32.015625 67.824219 C 33.101562 66.777344 30.339844 67.167969 32.015625 67.824219 Z M 35.929688 70.035156 C 36.589844 69.046875 33.816406 69.667969 35.929688 70.035156 Z M 28.421875 64.730469 C 30.109375 63.625 26.238281 64.714844 28.421875 64.730469 Z M 30.136719 65.601562 C 30.082031 65.015625 29.523438 65.863281 30.136719 65.601562 Z M 38.691406 71.011719 C 40.066406 71.890625 46.722656 72.9375 42.554688 71.371094 C 41.855469 71.519531 34.828125 69.355469 38.691406 71.011719 Z M 25.109375 60.296875 C 24.976562 59.710938 22.972656 59.648438 25.109375 60.296875 Z M 29.089844 62.648438 C 30.128906 61.910156 26.941406 62.082031 29.089844 62.648438 Z M 32.46875 64.753906 C 33.957031 64.183594 30.058594 64.183594 32.46875 64.753906 Z M 23.480469 58.503906 C 25.09375 59.753906 29.992188 58.660156 25.949219 57.753906 C 24.113281 56.761719 19.972656 56.085938 22.796875 58.351562 Z M 34.703125 65.441406 C 35.378906 64.285156 31.882812 64.78125 34.703125 65.441406 Z M 31.292969 62.699219 C 35.242188 63.828125 27.976562 60.171875 30.320312 62.277344 L 30.839844 62.511719 L 31.292969 62.691406 Z M 38.132812 66.699219 C 41.871094 66.734375 34.753906 66.171875 38.132812 66.699219 Z M 22.042969 56.308594 C 21.898438 55.605469 21.121094 56.367188 22.042969 56.308594 Z M 44.457031 70.289062 C 44.554688 69.015625 43.234375 71.238281 44.457031 70.289062 Z M 28.425781 60.261719 C 28.199219 59.59375 27.257812 60.238281 28.425781 60.261719 Z M 22.398438 55.867188 C 24.542969 55.738281 19.460938 54.910156 22.398438 55.867188 Z M 15.261719 51.199219 C 14.992188 50.15625 12.929688 49.324219 15.261719 51.199219 Z M 34 63.246094 C 33.609375 62.789062 33.816406 63.34375 34 63.246094 Z M 45.65625 70.496094 C 45.621094 69.800781 45.023438 70.757812 45.65625 70.496094 Z M 32.96875 62.167969 C 33.175781 61.269531 31.136719 61.894531 32.96875 62.167969 Z M 24.277344 56.585938 C 25.875 56.414062 21.71875 55.496094 24.277344 56.585938 Z M 38.972656 65.835938 C 41.460938 64.835938 36.550781 65.351562 38.972656 65.835938 Z M 31.332031 60.582031 C 34.195312 60.957031 27.917969 58.609375 30.699219 60.371094 Z M 41.292969 66.789062 C 43.96875 65.167969 43.085938 70.585938 45.835938 67.246094 C 48.542969 65.238281 43.496094 69.726562 46.832031 67.601562 C 49.25 65.964844 52.816406 68.378906 55.066406 69.164062 C 56.6875 69.085938 58.265625 70.585938 59.925781 69.671875 C 63.121094 68.796875 53.671875 68.378906 56.148438 66.828125 C 53.222656 67.691406 51.0625 65.804688 49.621094 63.902344 C 46.335938 63.132812 42.542969 61.433594 40.902344 58.492188 C 40.234375 57.386719 41.863281 58.648438 40.328125 56.84375 C 38.351562 55.058594 37.367188 53.035156 36.035156 50.867188 C 34.449219 50.011719 34.261719 47.488281 34.101562 50.785156 C 34.113281 48.703125 32.1875 47.300781 31.710938 47.882812 C 31.703125 45.882812 33.777344 46.882812 32.324219 45.40625 C 32.011719 43.324219 30.984375 41.167969 30.679688 38.820312 C 30.199219 37.6875 30.609375 35.265625 29.042969 37.828125 C 28.46875 40.53125 28.851562 34.507812 29.742188 36.492188 C 30.910156 34.464844 29.320312 34.699219 29.257812 34.984375 C 30.019531 33.273438 29.742188 30.84375 29.058594 31.773438 C 29.464844 29.957031 29.703125 25.101562 28.453125 25.960938 C 29.207031 24.066406 29.886719 17.285156 26.605469 19.867188 C 25.273438 19.886719 22.972656 20.359375 21.882812 20.90625 C 25.296875 22.808594 21.539062 21.59375 20.148438 21.289062 C 19.964844 23.050781 18.589844 22.289062 16.875 22.308594 C 19.625 22.648438 15.535156 25.148438 13.964844 24.183594 C 11.917969 25.171875 15.730469 27.644531 14.003906 28.410156 C 14.21875 29.5625 10.867188 27.996094 11.128906 30.660156 C 9.144531 29.8125 10.859375 33.816406 11.851562 32.460938 C 15.230469 33.386719 14.230469 35.5 14.316406 37.507812 C 13.765625 38.675781 11.597656 34.757812 13.832031 34.941406 C 12.066406 32.039062 11.882812 33.886719 10.417969 35.242188 C 10.078125 35.335938 14.15625 37.160156 11.59375 38.054688 C 13.847656 38.410156 13.914062 40.40625 14.371094 41.667969 C 15.722656 43.097656 15.441406 40.089844 17.0625 41.808594 C 16.039062 40.28125 11.632812 37.5 15.179688 38.386719 C 15.164062 36.847656 14.539062 35.605469 15.628906 35.636719 C 16.707031 33.660156 14.5 40.503906 16.925781 37.992188 C 17.597656 37.695312 17.765625 36.019531 18.972656 38.152344 C 20.722656 39.898438 19.605469 41.160156 17.132812 39.5625 C 17.574219 41.082031 20.4375 41.625 19.898438 44 C 20.46875 46.09375 21.269531 45.324219 21.964844 45.203125 C 22.484375 47.234375 22.820312 45.738281 22.847656 44.773438 C 25.347656 45.316406 24.761719 46.8125 25.542969 47.855469 C 27.265625 48.648438 23.078125 42.519531 26.039062 46.015625 C 29.148438 48.855469 27.207031 50.050781 24.414062 49.59375 C 26.179688 49.449219 26.753906 52.015625 28.960938 51.921875 C 30.976562 52.898438 32.339844 56.625 28.867188 55.070312 C 27.664062 53.972656 23.394531 52.613281 26.882812 54.703125 C 30.097656 56.214844 32.65625 57.113281 35.757812 59.011719 C 37.976562 60.589844 38.933594 62.453125 39.777344 62.820312 C 37.910156 63.722656 34.152344 62.097656 36.917969 61.601562 C 35.179688 61.277344 33.21875 60.390625 34.886719 62.585938 C 36.304688 63.785156 39.910156 63.660156 40.554688 63.796875 C 40.011719 65.015625 39.066406 65.109375 40.578125 65.207031 C 38.894531 66.117188 41.117188 66.261719 41.273438 66.78125 Z M 37.847656 56.933594 C 36.824219 55.847656 36.558594 53.816406 37.667969 55.585938 C 38.238281 55.816406 39.484375 58.90625 37.847656 56.933594 Z M 49.070312 64.121094 C 49.710938 64.078125 49.089844 64.613281 49.070312 64.121094 Z M 36.238281 54.238281 C 36.195312 52.597656 36.605469 55.503906 36.238281 54.238281 Z M 35.121094 52.71875 C 33.828125 50.195312 36.746094 53.429688 35.121094 52.71875 Z M 21.605469 43.246094 C 22.363281 43.039062 21.980469 44.558594 21.605469 43.246094 Z M 32.363281 49.152344 C 32.828125 47.378906 32.882812 50.636719 32.363281 49.152344 Z M 24.761719 43.800781 C 24.226562 42.824219 25.878906 44.714844 24.761719 43.800781 Z M 31.285156 45.914062 C 30.0625 43.144531 32.152344 44.402344 31.554688 46.367188 Z M 20.039062 38.320312 C 19.519531 37.410156 18.59375 34.742188 18.882812 33.925781 C 19.144531 35.25 21.667969 39.636719 20.121094 35.765625 C 18.410156 32.503906 22.164062 36.824219 22.550781 37.640625 C 22.734375 38.449219 21.496094 37.417969 22.332031 39.320312 C 20.804688 37.15625 21.433594 40.515625 20.042969 38.347656 Z M 16.566406 35.894531 C 16.707031 33.777344 17.359375 37.339844 16.566406 35.894531 Z M 18.128906 36.441406 C 18.875 34.84375 19.390625 38.664062 18.128906 36.441406 Z M 14.335938 33.546875 C 13.042969 32.242188 12.109375 31.046875 14.398438 32.738281 C 15.28125 32.773438 12.4375 30.007812 14.613281 31.859375 C 16.898438 32.28125 15.738281 35.65625 14.339844 33.542969 Z M 16.3125 33.492188 C 17.0625 32.738281 16.710938 34.234375 16.3125 33.492188 Z M 17.527344 33.886719 C 16.382812 31.722656 18.910156 34.796875 17.527344 33.886719 Z M 15.109375 31.550781 C 11.347656 28.15625 19.839844 33.320312 15.722656 32.183594 Z M 25.886719 37.894531 C 24.257812 36.90625 25.453125 30.933594 26.007812 35.015625 C 27.59375 34.5 25.921875 37.128906 27.101562 37.101562 C 26.917969 38.757812 26.386719 39.355469 25.886719 37.890625 Z M 29.871094 40.28125 C 30.027344 38.480469 30.210938 41.511719 29.871094 40.28125 Z M 29.179688 39.585938 C 29.363281 38.816406 29.195312 40.492188 29.179688 39.585938 Z M 15.875 30.433594 C 13.457031 27.058594 22.898438 33.851562 17.421875 31.289062 C 16.851562 31.136719 16.164062 31.085938 15.875 30.433594 Z M 23.550781 34.554688 C 23.324219 31.714844 24.0625 35.03125 23.550781 34.554688 Z M 29.378906 38.347656 C 29.828125 36.726562 29.414062 39.417969 29.378906 38.347656 Z M 16.246094 29.144531 C 17.683594 28.835938 22.222656 31.699219 18.050781 29.960938 C 17.59375 29.445312 16.605469 29.679688 16.246094 29.144531 Z M 28.578125 35.371094 C 28.730469 32.464844 29.433594 33.636719 28.582031 35.792969 Z M 17.3125 28.132812 C 17.902344 27.265625 15.761719 24.207031 17.621094 27.039062 C 18.398438 27.683594 19.949219 28.121094 18.609375 28.394531 C 20.726562 30.289062 18.089844 28.910156 17.316406 28.132812 Z M 27.964844 34.464844 C 28.367188 31.152344 28.320312 36.40625 27.964844 34.464844 Z M 16.09375 25.078125 C 16.539062 24.882812 16.328125 25.683594 16.09375 25.078125 Z M 18.871094 26.753906 C 19.585938 25.230469 20.191406 28.449219 18.871094 26.753906 Z M 26.710938 31.167969 C 26.707031 30.589844 26.859375 32.019531 26.710938 31.167969 Z M 26.257812 30.152344 C 25.171875 27.433594 27.296875 31.59375 26.257812 30.152344 Z M 25.589844 28.367188 C 25.40625 27.246094 26.210938 29.78125 25.589844 28.367188 Z M 26.675781 26.578125 C 25.925781 25.246094 27.617188 20.710938 27.808594 23.527344 C 27.019531 25.722656 27.582031 26.949219 28.125 24 C 29.140625 21.683594 27.910156 28.570312 26.671875 26.578125 Z M 27.792969 19.824219 C 28.117188 19.421875 27.863281 20.3125 27.792969 19.824219 Z M 25.921875 57.070312 C 25.480469 56.671875 25.980469 57.316406 25.921875 57.070312 Z M 29.769531 59.035156 C 31.90625 59.59375 31.898438 58.699219 29.964844 58.433594 C 28.925781 57.453125 25.644531 56.414062 28.582031 58.3125 C 28.773438 58.835938 29.386719 58.796875 29.769531 59.035156 Z M 22.183594 53.929688 C 23.359375 54.824219 26.617188 56.453125 23.859375 54.273438 C 24.789062 53.179688 22.082031 52.59375 22.976562 51.863281 C 20.691406 50.441406 21.171875 50.546875 22.773438 50.617188 C 20.027344 49.375 23.171875 49.46875 23.023438 48.828125 C 21.964844 48.617188 17.761719 46.933594 20.234375 48.964844 C 17.71875 47.667969 19.636719 49.449219 18.875 49.261719 C 16.277344 48.550781 21.160156 51.246094 18.46875 50.578125 C 19.941406 51.761719 22.4375 53.613281 19.089844 51.832031 C 18.648438 52.472656 21.484375 53.449219 22.207031 53.9375 Z M 26.203125 56.273438 C 31.085938 57.867188 23.804688 54.324219 26.203125 56.273438 Z M 46.777344 68.902344 C 46.839844 67.917969 46.109375 69.742188 46.777344 68.902344 Z M 48.894531 69.804688 C 50.019531 68.699219 48.941406 71.566406 50.761719 69.53125 C 50.78125 68.078125 50.710938 67.214844 48.667969 68.984375 C 48.105469 69.300781 47.855469 70.644531 48.894531 69.800781 Z M 15.320312 48.4375 C 14.972656 47.058594 12.890625 47.0625 15.320312 48.4375 Z M 17.578125 49.9375 C 16.738281 48.527344 14.585938 48.660156 17.578125 49.9375 Z M 30.429688 57.785156 C 31.683594 58.917969 36.191406 58.617188 31.949219 57.925781 C 31.328125 56.988281 27.96875 57.214844 30.429688 57.785156 Z M 48.089844 68.839844 C 50.019531 67.199219 46.21875 69.570312 48.089844 68.839844 Z M 52.105469 71.636719 C 52.121094 71.109375 51.273438 71.863281 52.105469 71.636719 Z M 52.113281 70.898438 C 54.253906 68.609375 50.042969 71.03125 52.113281 70.898438 Z M 9.765625 43.726562 C 7.945312 41.09375 8.632812 39.910156 6.875 37.757812 C 6.542969 36.113281 3.863281 32.382812 5.488281 36.335938 C 6.980469 38.652344 7.421875 42.234375 9.765625 43.734375 Z M 51.4375 70.164062 C 55.371094 67.589844 49.824219 69.042969 51.4375 70.164062 Z M 54.4375 71.355469 C 56.414062 69.644531 53.191406 71 54.4375 71.355469 Z M 14.648438 45.527344 C 15.210938 44.679688 13.195312 45.417969 14.648438 45.527344 Z M 53.8125 70.542969 C 55.71875 69.296875 53.371094 69.492188 53.46875 70.65625 Z M 27.933594 54.015625 C 27.867188 53.171875 26.925781 54.085938 27.933594 54.015625 Z M 29.53125 54.945312 C 29.019531 53.90625 28.75 55.109375 29.53125 54.945312 Z M 56.875 71.382812 C 59.316406 69.59375 55.394531 71.039062 56.363281 71.726562 Z M 55.9375 70.925781 C 57.929688 69.234375 53.835938 71.671875 55.9375 70.925781 Z M 60.71875 74.148438 C 62.054688 73.242188 59.09375 73.859375 60.71875 74.148438 Z M 15.878906 44.910156 C 17.667969 45.316406 23.035156 49.378906 19.871094 45.191406 C 18.25 44.703125 19.222656 40.691406 17.566406 41.402344 C 18.675781 43.28125 18.476562 44.082031 16.148438 42.894531 C 13.21875 41.449219 14.503906 43.613281 15.074219 44.210938 C 14.296875 44.394531 16.105469 44.894531 15.878906 44.914062 Z M 7.71875 38.382812 C 8.039062 37.039062 4.765625 30.988281 6.171875 35.351562 C 6.679688 36.265625 6.628906 37.996094 7.71875 38.382812 Z M 22.699219 47.738281 C 21.773438 46.957031 22.65625 47.628906 22.699219 47.738281 Z M 24.96875 48.277344 C 24.96875 46.855469 22.460938 47.695312 24.96875 48.277344 Z M 44.65625 60.84375 C 44.277344 59.871094 43.175781 60.824219 44.65625 60.84375 Z M 45.601562 61.546875 C 45.460938 61 45.082031 61.648438 45.601562 61.546875 Z M 53.402344 66.523438 C 54.15625 65.964844 52.46875 66.449219 53.402344 66.523438 Z M 11.789062 39.441406 C 13.9375 38.597656 9.492188 38.839844 11.789062 39.441406 Z M 42.914062 59.304688 C 42.890625 57.898438 41.546875 59.65625 42.914062 59.304688 Z M 10.941406 37.433594 C 12.316406 36.960938 9.667969 37.125 10.941406 37.433594 Z M 14.941406 39.398438 C 14.914062 38.933594 14.519531 39.574219 14.941406 39.398438 Z M 63.753906 69.714844 C 65.523438 69.355469 69.566406 70.628906 70.222656 69.242188 C 68.066406 69.191406 62.773438 67.703125 62.523438 69.59375 L 62.992188 69.675781 L 63.753906 69.722656 Z M 16.214844 39.726562 C 16.246094 38.296875 15.117188 39.671875 16.214844 39.726562 Z M 5.691406 32.328125 C 5.214844 29.613281 3.875 31.917969 5.691406 32.328125 Z M 8.199219 32.96875 C 8.230469 32.09375 5.902344 32.183594 8.199219 32.96875 Z M 9.632812 33.679688 C 9.21875 33.335938 9.3125 34.109375 9.632812 33.679688 Z M 18.65625 39.539062 C 19.082031 39.144531 17.652344 39.25 18.65625 39.539062 Z M 8.679688 32.066406 C 8.4375 30.015625 5.769531 31.757812 8.679688 32.066406 Z M 3.535156 28.683594 C 3.464844 27.738281 3.035156 29.042969 3.535156 28.683594 Z M 4.304688 28.101562 C 4.179688 26.976562 3.644531 28.242188 4.304688 28.101562 Z M 8.53125 30.652344 C 10.316406 29.941406 5.273438 29.179688 8.167969 30.523438 Z M 65.109375 66.070312 C 66.253906 65.003906 63.65625 65.738281 65.109375 66.070312 Z M 71.941406 69.65625 C 72.402344 68.289062 70.785156 69.839844 71.941406 69.65625 Z M 8.957031 28.421875 C 9.148438 27.09375 7.539062 28.683594 8.957031 28.421875 Z M 2.941406 24.34375 C 2.625 22.460938 2.671875 19.171875 5.757812 20.28125 C 1.636719 21.113281 8.617188 25.476562 7.730469 22.027344 C 9.46875 22.117188 11.125 20.988281 10.214844 22.695312 C 13.636719 22.316406 16 19.3125 19.304688 19.738281 C 21.902344 19.390625 24.6875 19.132812 27.460938 18.078125 C 29.738281 17.914062 31.929688 15.429688 30.683594 13.953125 C 27.574219 13.691406 24.324219 14.082031 20.890625 14.777344 C 17.082031 15.574219 13.628906 17.097656 9.789062 17.75 C 6.046875 18.261719 10.539062 19.152344 9.46875 19.355469 C 7.519531 20.039062 11.796875 20.503906 9.214844 21.230469 C 7.621094 20.921875 5.960938 20.367188 6.644531 18.664062 C 3.058594 19.136719 -0.09375 20.640625 2.742188 24.335938 L 2.949219 24.339844 Z M 11.585938 19.90625 C 12.425781 16.769531 16.089844 22.488281 12.964844 20.328125 C 12.59375 20.042969 11.976562 19.816406 11.585938 19.90625 Z M 11.75 18.386719 C 12.964844 17.472656 12.394531 18.898438 11.75 18.386719 Z M 13.292969 18.414062 C 13.402344 16.96875 16.820312 19.203125 13.855469 18.929688 Z M 15.398438 17.554688 C 16.167969 16.640625 15.621094 18.363281 15.398438 17.554688 Z M 15.9375 17.1875 C 17.21875 15.625 23.191406 16.1875 18.792969 17.035156 C 17.625 16.140625 16.722656 17.558594 15.9375 17.1875 Z M 23.730469 15.96875 C 23.539062 11.703125 27.605469 17.480469 23.730469 15.96875 Z M 25.945312 15.953125 C 26.75 13.808594 29.089844 15.089844 26.320312 15.523438 C 26.382812 15.753906 26.238281 16.632812 25.945312 15.953125 Z M 8.089844 27.34375 C 10.503906 25.84375 5.523438 26.042969 8.089844 27.34375 Z M 9.875 27.867188 C 10.722656 26.957031 8.058594 27.5 9.875 27.867188 Z M 4.613281 24.039062 C 5.988281 22.960938 2.976562 23.632812 4.613281 24.039062 Z M 75.980469 69.265625 C 76.019531 68.019531 74.925781 69.828125 75.980469 69.265625 Z M 68.730469 64.253906 C 68.9375 62.820312 67.796875 64.375 68.730469 64.253906 Z M 77.980469 69.753906 C 79.910156 69.761719 83.832031 69.148438 79.628906 69.148438 C 78.96875 69.253906 75.785156 69.226562 77.980469 69.753906 Z M 11.453125 26.941406 C 13.015625 26.835938 13.894531 25.199219 11.148438 25.289062 C 6.886719 24.84375 14.90625 26.769531 10.628906 26.214844 C 10.050781 26.601562 11.445312 27.046875 11.480469 26.941406 Z M 12.828125 27.648438 C 12.667969 26.632812 12.347656 28.1875 12.828125 27.648438 Z M 14.464844 23.238281 C 15.140625 22.382812 13.53125 23.007812 14.464844 23.238281 Z M 9.269531 14.4375 C 12.0625 13.476562 15.875 12.398438 17.195312 14.910156 C 15.855469 13.277344 16.652344 11.667969 17.921875 14.058594 C 19.714844 16.472656 20.609375 12.957031 19.445312 12.148438 C 20.769531 13.816406 22.277344 14.605469 20.332031 12.25 C 22.449219 9.671875 16.097656 12.589844 14.652344 12.558594 C 13.960938 12.875 7.484375 14.234375 9.277344 14.4375 Z M 10.90625 11.265625 C 12.496094 10.050781 16.410156 11.988281 13.898438 10.054688 C 13.652344 9.835938 8.40625 11.519531 10.90625 11.265625 Z M 16.707031 11.507812 C 18.566406 11.554688 15.902344 8.972656 18.121094 10.144531 C 17.753906 8.9375 15.535156 8.714844 14.449219 8.230469 C 13.835938 9.332031 15.699219 11.519531 16.703125 11.507812 Z M 11.925781 6.175781 C 12.570312 5.289062 10.796875 6.621094 11.925781 6.175781 Z M 14.285156 6.75 C 17.285156 6.347656 13.519531 5.441406 13.679688 6.71875 Z M 9.859375 3.25 C 7.746094 0.453125 13.832031 3.71875 11.683594 0.792969 C 9.875 -0.664062 8.144531 2.433594 9.859375 3.25 Z M 36.964844 18.039062 C 37.933594 16.300781 32.964844 15.695312 36.316406 17.421875 C 36.621094 17.527344 36.554688 18.160156 36.964844 18.039062 Z M 36.964844 18.039062 "/>
</g>
</svg>
